<?xml version="1.0" encoding="UTF-8"?>
<svg id="Capa_2" data-name="Capa 2" xmlns="http://www.w3.org/2000/svg" viewBox="0 0 188.29 91.84">
  <defs>
    <style>
      .cls-1 {
        fill: #fff;
      }

      .cls-1, .cls-2 {
        stroke-width: 0px;
      }

      .cls-2 {
        fill: #00f1a7;
      }
    </style>
  </defs>
  <g id="Modo_de_aislamiento" data-name="Modo de aislamiento">
    <g>
      <g>
        <path class="cls-1" d="M92.8,40.55l5.78-18.78h5.59l-7.28,22.74h-8.17l-7.31-22.74h5.59l5.81,18.78Z"/>
        <path class="cls-1" d="M109.6,20.59c1.63,0,2.78,1.12,2.78,2.68s-1.15,2.71-2.78,2.71-2.78-1.12-2.78-2.71,1.15-2.68,2.78-2.68ZM112,44.51h-4.79v-16.35h4.79v16.35Z"/>
        <path class="cls-1" d="M128.7,39.31l4.18.93c-.86,2.84-4.22,4.92-8.08,4.92-5.27,0-9.01-3.67-9.01-8.94s3.74-8.69,9.01-8.69,8.81,3.58,8.81,8.75c0,.42,0,1.09-.06,1.44l-12.8-.03c.41,2.3,2.01,3.8,4.18,3.8,1.72,0,3.19-.93,3.77-2.17ZM128.76,34.8c-.29-2.08-1.88-3.61-4.06-3.61s-3.58,1.44-3.99,3.61h8.05Z"/>
        <path class="cls-1" d="M135.21,28.16h4.98l3.35,11.56,3.19-11.56h4.47l3.42,11.66,3.32-11.66h4.82l-4.98,16.35h-6.07l-2.75-10.76-2.75,10.76h-6.07l-4.95-16.35Z"/>
        <path class="cls-1" d="M164.76,21.78h6.23l5.33,7.89,5.46-7.89h6.32l-7.73,10.73,7.92,12.01h-6.32l-5.65-9.01-5.52,9.01h-6.23l7.57-12.01-7.38-10.73Z"/>
      </g>
      <path class="cls-2" d="M22.29,67.45l9.36-9.36c1.15-1.15,3.02-1.15,4.17,0l9.36,9.36,7.77-7.77-17.13-17.13c-1.15-1.15-3.02-1.15-4.17,0l-17.13,17.13,7.77,7.77Z"/>
      <path class="cls-2" d="M0,22.29l9.36,9.36c1.15,1.15,1.15,3.02,0,4.17L0,45.17l7.77,7.77,17.13-17.13c1.15-1.15,1.15-3.02,0-4.17L7.77,14.52,0,22.29Z"/>
      <path class="cls-2" d="M45.17,0l-9.36,9.36c-1.15,1.15-3.02,1.15-4.17,0L22.29,0l-7.77,7.77,17.13,17.13c1.15,1.15,3.02,1.15,4.17,0L52.94,7.77l-7.77-7.77Z"/>
      <path class="cls-2" d="M67.45,45.17l-9.36-9.36c-1.15-1.15-1.15-3.02,0-4.17l9.36-9.36-7.77-7.77-17.13,17.13c-1.15,1.15-1.15,3.02,0,4.17l17.13,17.13,7.77-7.77Z"/>
    </g>
    <g>
      <path class="cls-1" d="M0,79.8h3.82c3,0,5.02,1.93,5.02,4.69s-2.02,4.69-5.02,4.69H0v-9.37ZM3.76,88.32c2.49,0,4.1-1.58,4.1-3.83s-1.61-3.83-4.1-3.83H.99v7.66h2.77Z"/>
      <path class="cls-1" d="M10.52,79.91c0-.36.31-.67.7-.67s.7.29.7.66c0,.39-.29.7-.7.7s-.7-.31-.7-.68ZM10.74,82.13h.95v7.04h-.95v-7.04Z"/>
      <path class="cls-1" d="M20.6,82.13v6.19c0,2.42-1.19,3.52-3.52,3.52-1.29,0-2.54-.39-3.28-1.08l.48-.72c.67.6,1.69.96,2.77.96,1.78,0,2.6-.82,2.6-2.56v-.9c-.59.9-1.59,1.37-2.74,1.37-2.01,0-3.53-1.41-3.53-3.43s1.53-3.4,3.53-3.4c1.18,0,2.2.48,2.78,1.41v-1.35h.91ZM19.68,85.48c0-1.53-1.12-2.57-2.68-2.57s-2.66,1.04-2.66,2.57,1.11,2.58,2.66,2.58,2.68-1.06,2.68-2.58Z"/>
      <path class="cls-1" d="M22.73,79.91c0-.36.31-.67.7-.67s.7.29.7.66c0,.39-.29.7-.7.7s-.7-.31-.7-.68ZM22.95,82.13h.95v7.04h-.95v-7.04Z"/>
      <path class="cls-1" d="M30.05,88.75c-.38.33-.94.5-1.49.5-1.33,0-2.06-.75-2.06-2.05v-4.26h-1.26v-.8h1.26v-1.54h.95v1.54h2.14v.8h-2.14v4.2c0,.83.43,1.29,1.22,1.29.39,0,.78-.12,1.04-.36l.33.68Z"/>
      <path class="cls-1" d="M36.9,84.81v4.36h-.91v-1.1c-.43.72-1.26,1.16-2.42,1.16-1.59,0-2.57-.83-2.57-2.05,0-1.08.7-1.99,2.72-1.99h2.24v-.43c0-1.2-.68-1.86-1.99-1.86-.91,0-1.77.32-2.34.83l-.43-.71c.71-.6,1.75-.95,2.87-.95,1.82,0,2.85.91,2.85,2.73ZM35.95,87.06v-1.15h-2.21c-1.37,0-1.81.54-1.81,1.26,0,.82.66,1.33,1.78,1.33s1.86-.51,2.24-1.43Z"/>
      <path class="cls-1" d="M39.18,79.24h.95v9.93h-.95v-9.93Z"/>
      <path class="cls-1" d="M42.22,79.91c0-.36.31-.67.7-.67s.7.29.7.66c0,.39-.29.7-.7.7s-.7-.31-.7-.68ZM42.44,82.13h.95v7.04h-.95v-7.04Z"/>
      <path class="cls-1" d="M50.63,88.38v.79h-5.73v-.63l4.43-5.61h-4.35v-.8h5.57v.63l-4.43,5.62h4.51Z"/>
      <path class="cls-1" d="M57.61,84.81v4.36h-.91v-1.1c-.43.72-1.26,1.16-2.42,1.16-1.59,0-2.57-.83-2.57-2.05,0-1.08.7-1.99,2.72-1.99h2.24v-.43c0-1.2-.68-1.86-1.99-1.86-.91,0-1.77.32-2.34.83l-.43-.71c.71-.6,1.75-.95,2.87-.95,1.82,0,2.85.91,2.85,2.73ZM56.66,87.06v-1.15h-2.21c-1.37,0-1.81.54-1.81,1.26,0,.82.66,1.33,1.78,1.33s1.86-.51,2.24-1.43Z"/>
      <path class="cls-1" d="M66.36,85.09v4.08h-.95v-3.99c0-1.49-.78-2.25-2.12-2.25-1.51,0-2.46.94-2.46,2.54v3.7h-.95v-7.04h.91v1.3c.51-.86,1.46-1.35,2.68-1.35,1.71,0,2.89.99,2.89,3.01Z"/>
      <path class="cls-1" d="M75.19,79.24v9.93h-.91v-1.39c-.58.95-1.55,1.46-2.72,1.46-2.01,0-3.51-1.46-3.51-3.59s1.5-3.57,3.51-3.57c1.12,0,2.09.48,2.68,1.39v-4.23h.95ZM74.26,85.65c0-1.65-1.12-2.74-2.61-2.74s-2.62,1.1-2.62,2.74,1.12,2.74,2.62,2.74,2.61-1.1,2.61-2.74Z"/>
      <path class="cls-1" d="M76.98,85.65c0-2.09,1.53-3.57,3.59-3.57s3.57,1.49,3.57,3.57-1.51,3.59-3.57,3.59-3.59-1.5-3.59-3.59ZM83.17,85.65c0-1.65-1.11-2.74-2.61-2.74s-2.62,1.1-2.62,2.74,1.12,2.74,2.62,2.74,2.61-1.1,2.61-2.74Z"/>
      <path class="cls-1" d="M95.72,85.95h-5.89c.11,1.47,1.23,2.45,2.77,2.45.86,0,1.62-.31,2.16-.92l.54.62c-.63.75-1.61,1.15-2.72,1.15-2.2,0-3.7-1.5-3.7-3.59s1.46-3.57,3.44-3.57,3.41,1.46,3.41,3.57c0,.08-.01.19-.01.29ZM89.82,85.24h4.99c-.12-1.38-1.12-2.34-2.5-2.34s-2.37.96-2.49,2.34Z"/>
      <path class="cls-1" d="M97.47,79.24h.95v9.93h-.95v-9.93Z"/>
      <path class="cls-1" d="M116.2,85.09v4.08h-.95v-3.99c0-1.49-.75-2.25-2.02-2.25-1.45,0-2.36.94-2.36,2.54v3.7h-.95v-3.99c0-1.49-.75-2.25-2.04-2.25-1.43,0-2.36.94-2.36,2.54v3.7h-.95v-7.04h.91v1.29c.5-.84,1.41-1.34,2.58-1.34s2.08.5,2.5,1.49c.51-.91,1.51-1.49,2.78-1.49,1.71,0,2.84.99,2.84,3.01Z"/>
      <path class="cls-1" d="M124.79,82.13v7.04h-.91v-1.29c-.5.86-1.41,1.35-2.53,1.35-1.79,0-2.97-1-2.97-3.03v-4.08h.95v3.99c0,1.5.78,2.26,2.12,2.26,1.47,0,2.4-.95,2.4-2.56v-3.7h.95Z"/>
      <path class="cls-1" d="M133.61,85.09v4.08h-.95v-3.99c0-1.49-.78-2.25-2.12-2.25-1.51,0-2.46.94-2.46,2.54v3.7h-.95v-7.04h.91v1.3c.51-.86,1.46-1.35,2.68-1.35,1.71,0,2.89.99,2.89,3.01Z"/>
      <path class="cls-1" d="M142.44,79.24v9.93h-.91v-1.39c-.58.95-1.55,1.46-2.72,1.46-2.01,0-3.51-1.46-3.51-3.59s1.5-3.57,3.51-3.57c1.12,0,2.09.48,2.68,1.39v-4.23h.95ZM141.5,85.65c0-1.65-1.12-2.74-2.61-2.74s-2.62,1.1-2.62,2.74,1.12,2.74,2.62,2.74,2.61-1.1,2.61-2.74Z"/>
      <path class="cls-1" d="M144.22,85.65c0-2.09,1.53-3.57,3.59-3.57s3.57,1.49,3.57,3.57-1.51,3.59-3.57,3.59-3.59-1.5-3.59-3.59ZM150.42,85.65c0-1.65-1.11-2.74-2.61-2.74s-2.62,1.1-2.62,2.74,1.12,2.74,2.62,2.74,2.61-1.1,2.61-2.74Z"/>
      <path class="cls-1" d="M157.92,81.3v.83h2.17v.8h-2.14v6.24h-.95v-6.24h-1.26v-.8h1.26v-.87c0-1.26.75-2.09,2.13-2.09.52,0,1.06.15,1.41.44l-.32.71c-.27-.23-.64-.35-1.04-.35-.82,0-1.24.46-1.24,1.33Z"/>
      <path class="cls-1" d="M162.77,79.39h1.27l-2.17,1.66h-.94l1.83-1.66ZM161.33,82.13h.95v7.04h-.95v-7.04Z"/>
      <path class="cls-1" d="M163.81,88.37l.43-.75c.56.44,1.51.79,2.5.79,1.34,0,1.89-.46,1.89-1.15,0-1.83-4.57-.39-4.57-3.17,0-1.15.99-2.01,2.78-2.01.91,0,1.9.25,2.49.66l-.42.76c-.62-.43-1.35-.6-2.07-.6-1.27,0-1.83.5-1.83,1.16,0,1.9,4.57.47,4.57,3.17,0,1.22-1.07,2.01-2.91,2.01-1.16,0-2.29-.37-2.87-.87Z"/>
      <path class="cls-1" d="M170.96,79.91c0-.36.31-.67.7-.67s.7.29.7.66c0,.39-.29.7-.7.7s-.7-.31-.7-.68ZM171.18,82.13h.95v7.04h-.95v-7.04Z"/>
      <path class="cls-1" d="M173.84,85.65c0-2.1,1.53-3.57,3.63-3.57,1.19,0,2.2.47,2.76,1.39l-.71.48c-.48-.71-1.23-1.04-2.05-1.04-1.54,0-2.66,1.1-2.66,2.74s1.12,2.74,2.66,2.74c.82,0,1.57-.32,2.05-1.03l.71.48c-.56.91-1.57,1.39-2.76,1.39-2.1,0-3.63-1.49-3.63-3.59Z"/>
      <path class="cls-1" d="M181.13,85.65c0-2.09,1.53-3.57,3.59-3.57s3.57,1.49,3.57,3.57-1.51,3.59-3.57,3.59-3.59-1.5-3.59-3.59ZM187.33,85.65c0-1.65-1.11-2.74-2.61-2.74s-2.62,1.1-2.62,2.74,1.12,2.74,2.62,2.74,2.61-1.1,2.61-2.74Z"/>
    </g>
  </g>
</svg>